<svg width="48" height="48" viewBox="0 0 48 48" fill="none" xmlns="http://www.w3.org/2000/svg">
<circle cx="24" cy="24" r="22.75" stroke="#294F89" stroke-width="2.5"/>
<path d="M8.42614 32L11.3239 14.5455H18.3125C19.5966 14.5455 20.6364 14.7358 21.4318 15.1165C22.233 15.4972 22.7926 16.0256 23.1108 16.7017C23.429 17.3722 23.5142 18.1449 23.3665 19.0199C23.2472 19.7017 23.0057 20.2983 22.642 20.8097C22.2841 21.321 21.8409 21.7415 21.3125 22.071C20.7841 22.4006 20.2102 22.6335 19.5909 22.7699L19.5568 22.9403C20.2159 22.9687 20.8097 23.1562 21.3381 23.5028C21.8665 23.8437 22.2614 24.3267 22.5227 24.9517C22.7841 25.5767 22.8438 26.3182 22.7017 27.1761C22.5483 28.1023 22.1818 28.929 21.6023 29.6562C21.0227 30.3778 20.25 30.9489 19.2841 31.3693C18.3239 31.7898 17.1903 32 15.8835 32H8.42614ZM12.6278 28.983H15.6364C16.6591 28.983 17.4403 28.7841 17.9801 28.3864C18.5199 27.9886 18.8438 27.4631 18.9517 26.8097C19.0256 26.3267 18.9773 25.9006 18.8068 25.5312C18.642 25.1619 18.3608 24.8722 17.9631 24.6619C17.571 24.4517 17.0739 24.3466 16.4716 24.3466H13.3864L12.6278 28.983ZM13.8125 21.8494H16.5483C17.0483 21.8494 17.5114 21.7614 17.9375 21.5852C18.3693 21.4034 18.7244 21.1477 19.0028 20.8182C19.2869 20.483 19.4659 20.0881 19.5398 19.6335C19.642 18.9972 19.5 18.4886 19.1136 18.108C18.733 17.7216 18.1364 17.5284 17.3239 17.5284H14.5284L13.8125 21.8494ZM24.1058 32L24.4808 29.8097L35.228 17.5881H26.4751L26.9865 14.5455H40.3501L39.9837 16.7358L29.228 28.9574H37.9808L37.4695 32H24.1058Z" fill="#294F89"/>
</svg>
