<svg width="700" height="700" viewBox="0 0 700 700" fill="none" xmlns="http://www.w3.org/2000/svg">
<circle cx="350" cy="350" r="345" fill="#EB4535" stroke="#C32020" stroke-width="10"/>
<path d="M504.99 137.5V549.9C504.99 556.86 499.35 562.5 492.39 562.5H461.48C454.52 562.5 448.88 556.86 448.88 549.9V405.97H424.24C411.35 405.97 400.9 395.52 400.9 382.63V239.61C400.9 183.22 446.62 137.5 503.01 137.5H504.99V137.5Z" fill="white"/>
<path d="M325.13 137.52C317.37 137.89 311.4 144.57 311.4 152.34V241.17C311.4 249.27 304.83 255.84 296.73 255.84C288.63 255.84 282.06 249.27 282.06 241.17V152.34C282.06 144.57 276.09 137.88 268.32 137.52C260.03 137.13 253.19 143.73 253.19 151.93V241.17C253.19 249.27 246.62 255.84 238.52 255.84C230.42 255.84 223.85 249.27 223.85 241.17V152.34C223.85 144.57 217.88 137.88 210.12 137.52C201.83 137.13 194.99 143.73 194.99 151.93V266.4V297.79C194.99 323.22 212.61 344.96 237.51 353.78L224.97 521.67C223.32 543.76 242.89 562.49 267.62 562.49C292.35 562.49 311.92 543.76 310.27 521.67L297.73 353.78C322.63 344.95 340.25 323.22 340.25 297.79V270.26V266.4V151.93C340.26 143.73 333.42 137.13 325.13 137.52Z" fill="white"/>
</svg>
